<?xml version="1.0" encoding="utf-8"?>
<!DOCTYPE svg PUBLIC "-//W3C//DTD SVG 1.1//EN" "http://www.w3.org/Graphics/SVG/1.1/DTD/svg11.dtd">
<svg version="1.1" id="图形" xmlns="http://www.w3.org/2000/svg" xmlns:xlink="http://www.w3.org/1999/xlink" x="0px" y="0px" width="1024px" height="1024px" viewBox="0 0 1024 1024" enable-background="new 0 0 1024 1024" xml:space="preserve">
  <path fill="#272636" d="M577.470529 812q55.240759 0 101.786214-33.246753t79.792208-83.884116 52.171828-109.97003 18.925075-110.481518q0-42.965035-14.321678-82.34965t-39.896104-71.096903-60.355644-54.217782-75.7003-32.735265q0-19.436563-1.022977-37.338661t-1.022977-35.292707q1.022977-35.804196 1.022977-69.050949t-5.114885-71.096903q-7.160839-49.102897-29.666334-84.395604t-51.66034-59.844156-62.401598-39.896104-60.355644-23.528472-45.522478-10.741259-19.436563-2.557443l-2.045954 0q-8.183816 0-13.81019 5.114885t-7.672328 13.298701q-1.022977 9.206793 5.114885 15.856144t14.321678 7.672328q2.045954 0 17.390609 2.557443t37.338661 9.718282 47.568432 19.436563 48.591409 32.735265 40.407592 49.614386 23.528472 70.073926q4.091908 31.712288 0.511489 64.959041t-14.833167 59.844156q-8.183816 17.390609-16.879121 37.338661t-14.833167 41.430569q-45.010989 8.183816-82.861139 30.177822t-65.982018 54.217782-43.988012 73.142857-15.856144 86.953047q0 51.148851 19.436563 110.481518t54.217782 109.97003 81.326673 83.884116 101.786214 33.246753z" transform="translate(0, 812) scale(1, -1)"/>
</svg>
