<?xml version="1.0" encoding="utf-8"?>
<!DOCTYPE svg PUBLIC "-//W3C//DTD SVG 1.1//EN" "http://www.w3.org/Graphics/SVG/1.1/DTD/svg11.dtd">
<svg version="1.1" id="图形" xmlns="http://www.w3.org/2000/svg" xmlns:xlink="http://www.w3.org/1999/xlink" x="0px" y="0px" width="1024px" height="1024px" viewBox="0 0 1024 1024" enable-background="new 0 0 1024 1024" xml:space="preserve">
  <path fill="#272636" d="M977.152102 317.48009c-6.324326 45.531034-85.359514 65.772032-117.280768 71.744-20.416819 3.862938-85.401498 5.620019-190.606746 4.652954-6.937293 12.120064-24.764006 43.117056-47.157965 82.105958 11.590451 10.407014 44.435866 40.306995 55.676314 54.445056 20.548813 25.859994-7.113318 38.110003-26.259149 38.065971-19.493786-0.044032-74.204979 0-82.899354 0-41.009664 70.734029-82.06336 140.897997-97.652019 165.353984-35.215462 55.454003-103.756288 29.198029-100.728115 0 2.722099-26.300006 71.440998-291.322982 85.22752-344.36096-2.942157-0.087962-5.708186-0.176026-8.650342-0.263987-80.572314-2.369946-148.543078-11.591987-203.648307-22.657024-16.861696 18.089984-72.625971 78.023987-105.644339 115.388006-40.220672 45.398938-61.910528 10.187059-59.452416-5.005005 6.981325-43.688038 34.687386-137.34103 37.016576-145.026048-15.236608-3.819008-24.810086-9.175962-24.898048-15.148032-0.085914 0-0.129946-0.044032-0.173978-0.087962 0.044032 0 0.087962-0.087962 0.173978-0.087962 0.087962-5.96992 9.66144-11.328 24.898048-15.104-2.284134-7.638938-30.035251-101.33801-37.016576-144.979968-2.458112-15.191962 19.231744-50.494054 59.452416-5.051085 33.019392 37.365043 88.783667 97.341952 105.644339 115.432038 55.105229-11.151974 123.075994-20.371968 203.648307-22.744986 2.942157-0.085914 5.708186-0.173978 8.650342-0.261939-13.787546-52.951962-82.505421-318.061978-85.22752-344.318976-3.02807-29.241958 65.512653-55.409971 100.728115 0 15.587635 24.410931 56.642355 94.576026 97.652019 165.353984 8.694374 0 63.40567 0 82.899354 0 19.14583-0.044032 46.807962 12.205978 26.259149 38.110003-11.240448 14.137958-44.085862 43.996058-55.676314 54.445056 22.393958 38.901965 40.220672 69.901005 47.157965 82.017997 105.20535-0.965018 170.189926 0.876954 190.606746 4.652954C891.792589 250.12608 972.408934 275.065088 977.152102 317.48009" transform="translate(0, 812) scale(1, -1)"/>
</svg>
