<?xml version="1.0" encoding="utf-8"?>
<!DOCTYPE svg PUBLIC "-//W3C//DTD SVG 1.1//EN" "http://www.w3.org/Graphics/SVG/1.1/DTD/svg11.dtd">
<svg version="1.1" id="图形" xmlns="http://www.w3.org/2000/svg" xmlns:xlink="http://www.w3.org/1999/xlink" x="0px" y="0px" width="1024px" height="1024px" viewBox="0 0 1024 1024" enable-background="new 0 0 1024 1024" xml:space="preserve">
  <path fill="#272636" d="M975.801344 323.771443c0 18.441011-9.660416 40.220058-19.93687 54.887117-79.699354 114.255258-219.823411 146.309222-304.132915 152.631194-23.230976 26.611098-130.506547 110.127206-130.506547 110.127206-56.734413 43.911066-56.427418 0-56.427418 0s0-47.862067 0-137.263206C312.113971 422.832589 312.113971 379.713485 277.817549 357.406464c-34.295501-22.309069-70.127002 36.707021-126.202368 86.152192-56.07639 49.442099-77.901312 33.504051-74.782208 0 2.371072-25.337037 26.961101-80.797184 38.818714-106.440192 2.195046-6.936986 3.512115-18.527949-3.426202-34.292019-12.646502-27.709133-33.284403-75.922125-35.392512-99.019162-3.118182-33.458995 18.705818-49.442099 74.782208 0 56.074342 49.532109 91.906867 108.460237 126.202368 86.151168 34.295501-22.307021 34.295501-65.426125 186.977997-146.746163 0-89.315226 0-137.177293 0-137.177293s-0.306995-43.998106 56.427418 0c0 0 107.275571 83.473101 130.506547 110.039142 84.31063 6.366003 224.47657 38.376038 304.132915 152.632218 10.276454 14.753997 19.93687 36.445082 19.93687 54.974054l0 0 0 0L975.799296 323.771403 975.801344 323.771443zM820.571648 275.732326c-25.86409 0-46.855066 21.517107-46.855066 47.949107 0 26.524058 20.990874 47.952179 46.855066 47.952179 25.863066 0 46.854042-21.428019 46.854042-47.952179C867.42569 297.249331 846.43584 275.732326 820.571648 275.732326z" transform="translate(0, 812) scale(1, -1)"/>
</svg>
