<?xml version="1.0" encoding="utf-8"?>
<!DOCTYPE svg PUBLIC "-//W3C//DTD SVG 1.1//EN" "http://www.w3.org/Graphics/SVG/1.1/DTD/svg11.dtd">
<svg version="1.1" id="图形" xmlns="http://www.w3.org/2000/svg" xmlns:xlink="http://www.w3.org/1999/xlink" x="0px" y="0px" width="1024px" height="1024px" viewBox="0 0 1024 1024" enable-background="new 0 0 1024 1024" xml:space="preserve">
  <path fill="#272636" d="M98.304-28.704q78.848 14.336 137.216 38.4t97.28 47.616q46.08 27.648 78.848 59.392l61.44-70.656q-18.432-17.408-47.616-34.304t-64.512-31.232-72.192-26.624-70.656-20.992-60.416-13.312-40.96-4.608q-3.072 8.192-6.144 17.92t-6.144 17.92q-4.096 10.24-6.144 20.48zM977.92 195.552q-27.648-24.576-59.392-46.08-26.624-18.432-61.44-35.84t-71.68-24.576q40.96-21.504 88.064-39.424t100.352-29.184q-19.456-25.6-35.84-48.128-14.336-19.456-28.16-38.4t-22.016-27.136q-53.248 22.528-96.256 47.616t-76.8 50.176-58.88 49.152-43.52 44.544l0-192.512-123.904 0 0 304.128q-14.336-1.024-28.16-1.536t-28.16-1.536l33.792-36.864q-45.056-27.648-99.328-52.224-46.08-20.48-109.056-41.472t-136.704-32.256q-3.072 14.336-6.144 26.624l-6.144 22.528q-3.072 11.264-5.12 17.408 31.744 4.096 64 14.336t61.952 23.04 55.296 27.136 46.08 26.624q-29.696-2.048-54.272-2.048t-41.984-1.024q-20.48-1.024-37.888-1.024l-15.36 70.656q46.08 0 110.592 3.584t135.168 10.752l0 50.176q-75.776-8.192-136.192-17.408t-103.424-17.408q-50.176-10.24-89.088-19.456l-39.936 101.376q23.552 3.072 50.688 6.144t56.832 6.144l0 204.8-67.584 0 0 75.776 515.072 0 0-25.6q35.84 5.12 92.672 10.24t116.224 4.096q51.2 0 88.576-11.264t53.76-30.72q28.672-34.816-5.12-88.064-9.216-15.36-27.648-34.304t-43.008-39.424q46.08-30.72 89.088-70.656-12.288-12.288-29.184-28.672t-32.256-30.72l-36.864-34.816q-21.504 26.624-43.52 50.688t-43.52 44.544q-25.6-17.408-53.248-33.792t-56.32-33.792q23.552 6.144 44.544 12.288t38.4 13.312q8.192-20.48 18.432-38.912 8.192-16.384 17.92-33.28t19.968-29.184q-38.912-8.192-89.6-14.336t-108.032-11.264q31.744-40.96 81.92-79.872 38.912 12.288 68.096 33.28t49.664 41.472q23.552 23.552 40.96 50.176zM427.008 432.096l-144.384 0 0-31.744q37.888 2.048 74.24 3.072t70.144 3.072l0 25.6zM427.008 516.064l-144.384 0 0-34.816 144.384 0 0 34.816zM427.008 596.96l-144.384 0 0-31.744 144.384 0 0 31.744zM536.576 294.88q32.768 5.12 62.976 9.728t57.856 10.752l-44.032 87.04q29.696 11.264 57.344 23.04t51.2 24.064q-20.48 16.384-37.376 29.184t-29.184 20.992q-14.336 10.24-26.624 16.384l48.128 54.272q18.432-7.168 39.936-17.408 18.432-8.192 43.008-20.48t53.248-27.648q29.696 20.48 41.984 38.912 16.384 20.48 5.12 34.816-13.312 16.384-51.2 16.384l-4.096 0q-43.008 0-80.384-6.656t-64.512-14.336-43.008-14.848-16.896-7.168l-12.288 45.056-51.2 0 0-187.392q17.408 0 31.232 0.512t24.064 0.512l20.48 0 0-66.56q-38.912 0-75.776-3.072l0-46.08z" transform="translate(0, 812) scale(1, -1)"/>
</svg>
