<?xml version="1.0" encoding="utf-8"?>
<!DOCTYPE svg PUBLIC "-//W3C//DTD SVG 1.1//EN" "http://www.w3.org/Graphics/SVG/1.1/DTD/svg11.dtd">
<svg version="1.1" id="图形" xmlns="http://www.w3.org/2000/svg" xmlns:xlink="http://www.w3.org/1999/xlink" x="0px" y="0px" width="1024px" height="1024px" viewBox="0 0 1024 1024" enable-background="new 0 0 1024 1024" xml:space="preserve">
  <path fill="#272636" d="M606.440243 751.692442c0 0-28.452147 15.804928-77.275034 14.575923-48.824934 1.229005-77.233152-14.575923-77.233152-14.575923l0-59.271942 154.507147 0L606.439205 751.692473zM818.24768-53.791795c0 0 0 504.910541 0 532.569498 0 27.661005-17.474662 36.880998-17.474662 36.880998L607.187251 669.852518 451.187026 669.852518l-193.58679-154.193818c0 0-17.518694-9.219994-17.518694-36.880998 0-27.658957 0-532.569498 0-532.569498s-6.761267-79.115878 79.471206-79.115878l132.37929 0c78.550118 0 154.507162 0 154.507162 0l132.37929 0C825.008947-132.908698 818.24768-53.791795 818.24768-53.791795zM738.77545 137.546086c0-8.691917-7.287296-15.804928-16.245658-15.804928L604.202131 121.741158c-8.956314 0-16.201626 7.113011-16.201626 15.804928L588.000506 398.695836c0 8.779981 7.245312 15.84896 16.201626 15.84896l118.328721 0c8.958362 0 16.245658-7.068979 16.245658-15.84896L738.776509 137.546048z" transform="translate(0, 812) scale(1, -1)"/>
</svg>
