<?xml version="1.0" encoding="utf-8"?>
<!DOCTYPE svg PUBLIC "-//W3C//DTD SVG 1.1//EN" "http://www.w3.org/Graphics/SVG/1.1/DTD/svg11.dtd">
<svg version="1.1" id="图形" xmlns="http://www.w3.org/2000/svg" xmlns:xlink="http://www.w3.org/1999/xlink" x="0px" y="0px" width="1024px" height="1024px" viewBox="0 0 1024 1024" enable-background="new 0 0 1024 1024" xml:space="preserve">
  <path fill="#272636" d="M890.964582-147.696486l-690.760676 0c-75.727872 0-137.128755 61.398323-137.128755 137.123021l0 621.146862c0 75.724698 61.400986 137.123021 137.128755 137.123021l690.760676 0c75.727872 0 133.035418-61.398323 133.035418-137.123021l0-621.146862C1024-86.298061 966.692454-147.696486 890.964582-147.696486L890.964582-147.696486zM318.91241 619.783219c-32.747213-111.540326-58.330931-223.080755-127.918694-320.29481 6.140109-22.512742 0-64.468275 0-64.468275s49.120768 36.839014 64.47104 64.468275l0-320.29484 63.447647 0 0 448.208115c27.630387 55.258522 53.214106 132.006502 73.681101 190.334976L318.91241 619.783219zM682.201395 608.526797l-42.980659-38.885683c38.887219-32.745779 77.774541-61.398323 103.358259-90.05097 14.326886 16.372941 18.420326 60.37504 25.583718 71.631462C744.625664 572.711066 682.201395 608.526797 682.201395 608.526797L682.201395 608.526797zM831.610368 135.759309c-18.420326 5.116518-46.050714 29.67593-63.447654 29.67593-2.046669-46.048768 0-121.773466 0-121.773466l-71.63444 0c-44.004045 0-58.330931 35.815731-57.307546 63.444992l0 256.849856 192.38964 0 0 63.444984-255.837287 0c3.070054 48.095437 0 118.703514 0 192.381542l-64.470996 0c0-23.536026 2.046669-158.61248 0-192.381542l-127.918644 0 0-63.444984 127.918644 0c0 0-10.233446-205.684531-132.012032-320.29481 5.116723-4.093235 4.09344-64.468275 4.09344-64.468275s75.727872 31.722496 124.84864 130.983219c47.074099 93.120819 67.541094 253.779968 67.541094 253.779968l0-256.849856c0-58.328474 20.466995-127.913267 79.82121-127.913267l112.568406 0c58.330931 0 64.47104 24.559309 63.447654 64.468275C831.610368 67.197798 830.586982 89.710541 831.610368 135.759309z" transform="translate(0, 812) scale(1, -1)"/>
</svg>
