<?xml version="1.0" encoding="utf-8"?>
<!DOCTYPE svg PUBLIC "-//W3C//DTD SVG 1.1//EN" "http://www.w3.org/Graphics/SVG/1.1/DTD/svg11.dtd">
<svg version="1.1" id="图形" xmlns="http://www.w3.org/2000/svg" xmlns:xlink="http://www.w3.org/1999/xlink" x="0px" y="0px" width="1024px" height="1024px" viewBox="0 0 1024 1024" enable-background="new 0 0 1024 1024" xml:space="preserve">
  <path fill="#272636" d="M748.544 607.2q43.008 3.072 84.48-7.68t73.728-26.624 52.224-33.792 19.968-30.208-15.36-14.848-38.4-4.608-50.688-7.68-52.224-25.088q-16.384-12.288-31.232-27.136t-29.696-28.672-30.72-25.6-34.304-17.92q-9.216-3.072-22.528-6.144t-28.16-1.536-30.72 9.728-30.208 27.648q-9.216-12.288-15.872-29.184t-11.776-36.352-8.704-40.448-5.632-39.424q-2.048-15.36-3.072-38.4t-0.512-45.568 2.56-41.472 6.144-27.136q5.12-9.216 5.12-15.36 0-5.12-5.12-9.728t-19.456-4.608q-16.384 0-22.016 4.608t-5.632 9.728q-1.024 6.144 4.096 14.336 5.12 10.24 6.656 24.064t1.024 29.696-1.536 32.256-1.024 31.744q-16.384 32.768-31.744 55.296t-33.792 43.008q-11.264-24.576-26.112-36.864t-30.208-16.896-29.184-4.096-24.064 2.56q-18.432 3.072-34.816 11.776t-32.768 19.456-33.28 23.04-34.304 21.504q-26.624 15.36-54.784 16.384t-51.2-1.536-37.888-2.048-14.848 13.824 16.896 33.792 45.056 40.448 66.048 35.84 79.872 19.968q64.512 6.144 107.008-6.656t66.56-36.352 30.208-54.272-2.048-61.44q32.768-29.696 64.512-75.776 5.12 50.176 25.6 101.376 8.192 17.408 15.36 29.696t17.408 26.624q-16.384 29.696-16.896 63.488t19.456 63.488 61.952 50.688 110.592 25.088zM443.392 325.6q-57.344 49.152-120.832 63.488t-131.072-3.072q-2.048 0-1.024-0.512t3.072-0.512q29.696 3.072 60.416 2.56t61.952-9.216 61.952-25.6 60.416-45.568zM819.2 520.16q2.048 0 3.072 0.512t-2.048 0.512q-74.752 7.168-135.168-23.04t-106.496-88.576l10.24-17.408q27.648 37.888 56.832 62.464t59.392 38.912 58.88 19.968 55.296 6.656zM284.672-3.104q-8.192 7.168 5.12 16.896t38.912 19.968 57.856 20.992 61.952 18.944q13.312 4.096 20.992-0.512t14.336-11.776 16.384-13.824 28.16-6.656 28.16 6.656 16.896 13.312 14.336 11.264 20.48 1.536q29.696-8.192 62.464-19.456t58.88-22.016 39.424-20.48 3.072-14.848q-24.576-13.312-66.048-22.016t-90.112-12.8-100.352-4.096-97.792 4.608-81.92 13.312-51.2 20.992z" transform="translate(0, 812) scale(1, -1)"/>
</svg>
