<?xml version="1.0" encoding="utf-8"?>
<!DOCTYPE svg PUBLIC "-//W3C//DTD SVG 1.1//EN" "http://www.w3.org/Graphics/SVG/1.1/DTD/svg11.dtd">
<svg version="1.1" id="图形" xmlns="http://www.w3.org/2000/svg" xmlns:xlink="http://www.w3.org/1999/xlink" x="0px" y="0px" width="1024px" height="1024px" viewBox="0 0 1024 1024" enable-background="new 0 0 1024 1024" xml:space="preserve">
  <path fill="#272636" d="M590.269246 174.036124c-45.42847-45.231157-28.252595-104.664781-12.827669-129.772622l21.755358 10.730389c-0.971157 2.530636-23.145065 62.235436 26.966247 84.331687 18.034464 7.948019 22.021428 22.184255 19.965522 31.960922-2.339374 11.089569-12.0182 18.540262-24.083475 18.540262C614.781504 189.827785 603.381406 187.091464 590.269246 174.036124zM207.006953 203.477666c-8.202135 0-17.118567-2.758834-26.510857-8.197706-55.460352-32.143071-54.012314-94.003977-45.494988-122.221646l23.77954 4.796236c-0.285514 2.698458-6.186139 66.176189 47.569314 74.706469 20.145631 3.187599 28.329346 17.151635 27.415496 28.774347C232.90994 192.340001 223.43169 203.477666 207.006953 203.477666zM949.255676 538.793618c-0.379662-0.062422-88.380438-15.249309-161.207007 26.119891-16.976322 9.642614-33.66713 21.88545-49.806353 33.722032-31.441348 23.061228-63.944931 46.912449-100.582841 52.973492-7.193114 1.189082-16.843287 2.559289-27.681567 2.559289-36.284855 0-64.716536-15.201214-84.778252-45.24139-16.842263 20.345374-33.457344 43.297109-49.520839 68.431555l-3.586835 5.624091-6.671206 0c-4.242801 0-4.890581-0.475837-15.911017-8.697079C302.328761 556.320806 276.055321 406.20895 254.939556 285.590825c-3.131445-17.912975-6.138042-35.098379-9.411733-51.355645-6.375459 3.657296-12.865533 6.468318-19.411891 8.402367-5.291733 1.546216-10.773809 2.612501-16.282492 3.168156-27.292695 2.740414-55.56371-6.512321-78.001641-25.260314-20.459799-17.093307-45.828599-50.087768-50.491997-110.197798-3.084371-39.695071 11.32437-78.384231 40.536866-108.943224 28.538109-29.826306 68.381145-48.681746 112.269476-53.102429 43.828977-4.423753 86.613115 6.142907 120.480822 29.679973 34.723225 24.112164 56.543054 59.149145 61.463312 98.66616 7.403924 59.777455-10.887401 97.189529-27.530111 118.058836-18.250391 22.86987-44.26697 37.552268-71.387742 40.286542-5.585434 0.563842-11.161658 0.605797-16.59359 0.144286-4.302156-0.370437-8.670829-1.099031-13.075319-2.178619 2.863328 14.72026 5.537337 29.91124 8.315727 45.691645 16.739929 95.104031 35.408869 201.162556 110.986198 295.101041-7.480675-26.78504-11.162681-51.79362-11.162681-75.534324-0.074704-44.979424 13.883764-85.35397 41.498813-120.004141 32.601825-40.940434 79.020896-68.902276 119.957891-93.569072 5.007242-3.016707 9.961271-6.000668 14.883575-8.997931 23.349734-14.106276 42.896707-27.093055 57.362756-40.259936-4.179354 0.154519-8.392478 0.031722-12.618906-0.39295-27.092118-2.731204-53.116885-17.413602-71.400022-40.292682-16.632477-20.863167-34.903335-58.275241-27.509644-118.052696 4.901838-39.507806 26.720643-74.549903 61.442845-98.667184 28.881954-20.058848 63.824176-30.664394 101.031067-30.664394 6.45528 0 13.011871 0.333598 19.56744 0.99363 43.7993 4.41045 83.633126 23.264866 112.171235 53.096289 29.194075 30.553876 43.60077 69.239967 40.536866 108.938108-4.661351 60.09468-30.040384 93.099375-50.509394 110.194728-22.409277 18.756179-50.681316 28.000728-77.993454 25.263383-5.499473-0.555655-10.982572-1.62194-16.291702-3.174296-7.602453-2.238994-15.128155-5.665023-22.475795-10.227945-10.001181 17.271362-25.663524 33.493835-48.273378 50.160423-17.673222 12.980639-37.187448 24.742521-57.8468 37.193087-25.408711 15.304568-51.670894 31.135114-74.280747 49.433876-46.78236 38.024012-67.686292 77.816297-67.791697 129.015376 0 32.272008 8.811027 69.663616 26.25502 111.369483 13.064062-17.874089 26.558954-34.399461 40.297403-49.352011-12.864509-47.88152-4.928445-95.891977 22.194374-132.697231 22.657951-30.768771 69.123073-67.447135 161.790316-67.447135 14.833431 0 30.543872 0.971118 46.721982 2.888793 122.410856 14.505365 222.643712 150.877289 226.849673 156.676365l17.592378 24.269753L949.255676 538.793618zM304.013192 195.361825c2.969756 0.26606 6.052081 0.228197 9.164082-0.090051 16.481022-1.655709 32.583404-10.93812 44.183055-25.477254 11.856511-14.854313 24.806982-42.215474 19.10591-88.233554-3.48143-28.089755-19.33514-53.230342-44.609792-70.792323-26.073887-18.10638-58.845587-26.276457-93.807253-22.728654-34.353797 3.459798-65.355105 18.005073-87.299782 40.955784-21.286664 22.265096-31.801566 50.060139-29.612625 78.264505 3.596045 46.235021 21.732844 70.465888 36.330905 82.665745 12.636303 10.591219 27.862699 16.429181 42.839399 16.429181 1.84612 0 3.693263-0.090051 5.521986-0.276293 3.121212-0.313132 6.166696-0.899486 9.002393-1.731434 10.828047-3.192715 20.201915-10.69969 26.157801-16.429181l15.69202-15.115256 18.403893 11.6749C282.069538 188.908856 292.755339 194.40094 304.013192 195.361825zM658.802871 184.473847l18.403893-11.666714 15.719651 15.112186c5.947699 5.729491 15.310311 13.228279 26.110727 16.413831 2.890958 0.847298 5.929279 1.432629 9.042304 1.746784 16.679551 1.654686 34.15015-4.263094 48.375713-16.156982 14.579641-12.198833 32.715416-36.43891 36.304298-82.656535 2.179732-28.222785-8.32596-56.020898-29.604438-78.268598-21.93342-22.950711-52.925518-37.495986-87.39393-40.96397-34.350727-3.462868-67.656615 4.629437-93.720268 22.744004-25.285909 17.558911-41.118128 42.700521-44.581138 70.78516-5.709259 46.017056 7.230978 73.382311 19.097723 88.240717 11.578161 14.530948 27.681567 23.813359 44.162588 25.470091 1.722295 0.170892 3.43538 0.260943 5.138231 0.260943 1.361053 0 2.712896-0.057305 4.064739-0.178055C641.179792 194.39173 651.83694 188.912949 658.802871 184.473847zM729.391378 407.149369c-14.760773-1.7519-28.986336-2.63706-42.288838-2.63706-65.812541 0-100.714853 21.524223-118.413658 39.584554-20.137444 20.534685-29.939073 49.461505-27.806415 80.149435 79.704492-68.641333 169.059157-90.274026 262.220677-63.329351 11.646725 3.378957 10.597793 13.255908 10.427917 14.369266-0.761371 5.4225-5.311177 10.895141-13.741519 10.895141-0.952737 0-2.065117-0.067538-3.245037-0.229221-90.696274-12.314467-168.727593 16.670681-240.999507 89.431845 16.034842 30.220279 37.203821 34.311457 54.231311 34.311457 6.202513 0 13.151047-0.650823 21.229357-1.988284 26.729853-4.420683 53.793318-24.25031 82.569867-45.335535 16.232348-11.92868 34.638287-25.449625 53.98366-36.439934 31.754492-18.041912 79.504939-28.617781 125.658963-28.015054C851.899452 460.241564 787.68538 414.047476 729.391378 407.149369z" transform="translate(0, 812) scale(1, -1)"/>
</svg>
